<?xml version="1.0" encoding="UTF-8" standalone="no"?>

<svg
    version="1.1"
    viewBox="0 0 426.11035 447.51093"
    xmlns="http://www.w3.org/2000/svg">
    <g transform="translate(-42.889638,-32.220829)">
        <path
            fill="currentColor"
            d="M 75,478.61302 C 62.251742,475.02712 52.561641,467.05128 46.919251,455.5 L 43.5,448.5 43.231561,320.25 42.963122,192 H 255.98156 469 v 125.89466 c 0,123.2926 -0.0416,126.02922 -2.01069,132.40451 -3.69615,11.96676 -13.03338,21.76952 -25.98931,27.2851 -4.37201,1.86124 -9.57678,1.92112 -183,2.10514 -141.4147,0.15005 -179.434924,-0.0736 -183,-1.07639 z m 80.6923,-53.11428 c 3.598,-1.06849 6.21558,-2.76001 9.08019,-5.86775 5.36327,-5.81846 6.55442,-11.35876 6.05124,-28.14572 -0.3242,-10.81566 -0.74343,-13.6536 -2.50916,-16.98527 -5.20636,-9.82363 -9.59775,-11.5 -30.12517,-11.5 -14.68855,0 -16.20418,0.17387 -20.28212,2.32677 -2.424,1.27973 -5.75728,4.24162 -7.40728,6.58199 -2.99169,4.24343 -3.00091,4.30001 -3.32758,20.42323 -0.20026,9.88385 0.10161,17.60804 0.77664,19.87294 1.92732,6.46663 7.44323,11.54854 15.04447,13.86073 4.69193,1.42722 27.30391,1.03518 32.69877,-0.56692 z m 121.84528,-2.01418 c 3.54609,-2.1939 5.63524,-4.47267 7.6682,-8.36419 C 287.90084,409.96143 288,409.24221 288,394.85369 288,378.57185 287.1487,374.87571 282.19695,369.65842 276.58367,363.74411 273.65602,363 256,363 c -17.65602,0 -20.58367,0.74411 -26.19695,6.65842 -4.94615,5.2114 -5.80305,8.91969 -5.80305,25.11312 0,13.95197 0.15406,15.14492 2.58605,20.02529 5.04149,10.11696 10.6816,12.29218 30.99575,11.95414 14.8331,-0.24683 15.16218,-0.3007 19.95578,-3.26641 z m 116.08663,0.78964 c 5.092,-2.69959 8.97315,-7.19213 10.42673,-12.06927 0.67503,-2.2649 0.9769,-9.98909 0.77664,-19.87294 -0.32667,-16.12322 -0.33589,-16.1798 -3.32758,-20.42323 -1.65,-2.34037 -4.98328,-5.30226 -7.40728,-6.58199 C 390.01478,363.17387 388.49915,363 373.8106,363 c -20.52583,0 -24.90634,1.67184 -30.13208,11.5 -1.79955,3.38446 -2.18376,6.10367 -2.49677,17.67041 -0.47879,17.69293 0.87015,22.94483 7.36079,28.65812 2.49362,2.19497 6.20417,4.45501 8.24566,5.02231 2.04149,0.5673 10.2368,0.93659 18.2118,0.82065 12.74312,-0.18526 14.99971,-0.47572 18.62421,-2.39729 z M 157.76847,307.45227 c 4.75681,-1.98752 7.8939,-4.94797 10.5461,-9.95227 1.76573,-3.33167 2.18496,-6.16961 2.50916,-16.98527 0.50353,-16.79871 -0.68669,-22.32587 -6.06385,-28.1594 -5.81802,-6.31181 -11.13497,-7.64592 -28.58947,-7.17358 -15.18558,0.41094 -19.42063,1.76161 -24.51798,7.81947 -4.14444,4.92539 -4.83699,9.0477 -4.48001,26.66679 0.32667,16.12322 0.33589,16.1798 3.32758,20.42323 1.65,2.34037 4.98328,5.30226 7.40728,6.58199 4.07794,2.1529 5.59357,2.32677 20.28212,2.32677 12.06631,0 16.76352,-0.37131 19.57907,-1.54773 z m 118.02137,-0.36069 c 2.04059,-1.04963 4.92379,-3.18713 6.40711,-4.75 C 287.1487,297.12429 288,293.42815 288,277.14631 c 0,-14.38852 -0.0992,-15.10774 -2.79422,-20.26668 -2.03433,-3.89415 -4.12062,-6.1688 -7.67158,-8.36419 C 271.36623,243.61113 263.48021,245.5 256,245.5 c -9.06947,-0.0445 -14.05049,-1.61138 -21.5342,3.01544 -3.55096,2.19539 -5.63725,4.47004 -7.67158,8.36419 -2.7041,5.17625 -2.79351,5.8369 -2.77226,20.48456 0.0243,16.73772 1.0322,20.67154 6.60194,25.767 5.87556,5.37524 7.64781,5.78572 25.16594,5.82877 14.11684,0.0347 16.78476,-0.21454 20,-1.86838 z m 118.30288,-0.41835 c 2.424,-1.27973 5.75728,-4.24162 7.40728,-6.58199 2.99169,-4.24343 3.00091,-4.30001 3.32758,-20.42323 0.35698,-17.61909 -0.33557,-21.7414 -4.48001,-26.66679 -5.00714,-5.95065 -9.39795,-7.39227 -23.83284,-7.82495 -16.79871,-0.50353 -22.32587,0.68669 -28.1594,6.06385 -6.31181,5.81802 -7.64592,11.13497 -7.17358,28.58947 0.31301,11.56674 0.69722,14.28595 2.49677,17.67041 5.22532,9.82738 9.35839,11.41086 29.9142,11.46086 14.95778,0.0364 16.40353,-0.12495 20.5,-2.28763 z M 43.194819,133.25 43.5,95.5 l 3.419251,-7 C 52.682996,76.70028 63.582103,67.949095 76.111778,65.06054 78.5253,64.504134 83.9875,64.037891 88.25,64.024446 L 96,64 v 7.789901 c 0,19.440896 8.33087,33.324679 24.8869,41.475189 6.20795,3.05616 7.18289,3.23491 17.64394,3.23491 10.76698,0 11.28115,-0.10293 18.61156,-3.72581 9.22979,-4.56161 15.76265,-11.22406 20.15112,-20.550861 2.80796,-5.967729 3.20643,-7.931466 3.54561,-17.473329 L 181.22125,64 H 256 330.77875 l 0.38212,10.75 c 0.33918,9.541863 0.73765,11.5056 3.54561,17.473329 4.38847,9.326801 10.92133,15.989251 20.15112,20.550861 7.3278,3.62159 7.84783,3.72581 18.59054,3.72581 10.35438,0 11.47727,-0.20152 17.79261,-3.19313 C 407.18378,105.75456 416,90.924621 416,71.65882 v -7.920982 l 10.25,0.498254 c 15.96329,0.775979 26.62214,6.153131 34.78031,17.545884 C 468.54995,92.283028 469,95.322459 469,135.60534 V 171 H 255.94482 42.889638 Z M 129.1292,93.377091 c -9.87,-4.918424 -12.56841,-12.274491 -11.97329,-32.639983 0.36031,-12.329783 0.58593,-13.620871 3.14271,-17.983691 7.04582,-12.022788 23.3719,-14.144278 33.18859,-4.312687 C 158.91891,43.880674 160,48.123394 160,64 c 0,15.85447 -1.08422,20.124542 -6.47984,25.520163 -6.83398,6.833979 -15.62667,8.224362 -24.39096,3.856928 z m 236.88107,1.360452 C 361.19351,93.1304 354.71797,86.364468 353.22984,81.38398 352.52533,79.026139 352,71.600487 352,64 c 0,-15.876606 1.08109,-20.119326 6.51279,-25.55927 10.07556,-10.090853 26.95496,-7.545497 33.43245,5.0415 C 394.36263,48.179668 394.5,49.282944 394.5,64 c 0,14.717056 -0.13737,15.820332 -2.55476,20.51777 -4.6215,8.980445 -16.09682,13.502338 -25.93497,10.219773 z"
            id="path1"/>
    </g>
</svg>
