<?xml version="1.0" encoding="UTF-8" standalone="no"?>

<svg
    version="1.1"
    viewBox="0 0 112 119.74635"
    xmlns="http://www.w3.org/2000/svg">
    <g
        transform="translate(-8,-4)">
        <path
            fill="currentColor"
            d="m 33.5,122.36509 c -4.806252,-2.56767 -8.61458,-6.54258 -10.700399,-11.16845 -1.650032,-3.6594 -2.225115,-9.49547 -3.843039,-39.000002 C 17.910109,53.113487 17.041789,35.8125 17.026961,33.75 17.001988,30.276463 16.784096,30 14.071429,30 10.800269,30 8,27.753196 8,25.128571 8,21.444266 9.9438312,21 26.064076,21 h 15.664076 l 0.617831,-4.50757 C 43.756394,6.202359 47.5739,4 64,4 80.4261,4 84.243606,6.202359 85.654017,16.49243 L 86.271848,21 H 101.93592 C 118.05617,21 120,21.444266 120,25.128571 120,27.753196 117.19973,30 113.92857,30 111.74209,30 111,30.470446 111,31.856549 c 0,1.021101 -0.91105,18.233601 -2.02454,38.25 -1.98444,35.672481 -2.07854,36.502411 -4.75,41.893451 -1.82864,3.69021 -5.722831,8.90691 -8.908267,10.44305 l -2.554965,1.2321 -28.096084,0.0587 c -24.229421,0.0507 -28.585531,0.01 -31.166144,-1.3688 z M 53.896293,96.62496 c 0.800546,-0.9646 1.060966,-8.320002 0.872444,-24.641741 C 54.527385,51.087477 54.321669,48.604105 52.75,47.613375 c -1.275751,-0.804194 -2.224249,-0.804194 -3.5,0 -1.571669,0.99073 -1.777385,3.474102 -2.018737,24.369844 C 46.95377,96.007943 47.242335,98 51,98 c 0.965311,0 2.268643,-0.618768 2.896293,-1.37504 z m 26,0 c 0.800546,-0.9646 1.060966,-8.320002 0.872444,-24.641741 C 80.527385,51.087477 80.321669,48.604105 78.75,47.613375 c -1.275751,-0.804194 -2.224249,-0.804194 -3.5,0 -1.571669,0.99073 -1.777385,3.474102 -2.018737,24.369844 -0.188522,16.321739 0.0719,23.677141 0.872444,24.641741 1.464051,1.764072 4.328535,1.764072 5.792586,0 z M 77,18.2 C 77,13.587052 75.532371,13 64,13 52.467629,13 51,13.587052 51,18.2 V 21 h 13 13 z"
        />
    </g>
</svg>
