<?xml version="1.0" encoding="UTF-8" standalone="no"?>
<svg
    version="1.1"
    viewBox="0 0 512 512"
    xmlns="http://www.w3.org/2000/svg">
    <g>
        <path
            fill="currentColor"
            d="M 357,508.09891 C 238.05841,476.73841 30.620025,420.39258 26.161274,418.23425 19.021981,414.77834 9.3293057,405.15247 5.7767884,397.99026 1.5510192,389.4707 -0.33965802,380.64137 0.31840942,372.5 0.73228264,367.37971 7.8630969,342.2721 26.873346,279 L 52.862471,192.5 53.21451,270 c 0.349804,77.00818 0.366431,77.55077 2.619956,85.5 7.999179,28.21682 28.322688,49.0764 56.192904,57.6751 7.47263,2.30551 7.47263,2.30551 169.32173,2.58575 145.51921,0.25197 161.78925,0.43623 161.25587,1.82621 -0.32628,0.85027 -5.13195,16.02852 -10.67927,33.72945 -6.32337,20.17724 -11.25364,34.14126 -13.21589,37.4314 -8.43241,14.13884 -25.03833,23.33713 -41.90722,23.2131 C 373.88617,511.93957 364.975,510.20162 357,508.09891 Z M 125.1613,381.96758 C 107.0414,377.22126 93.996481,364.45992 87.372227,345 85.581597,339.73971 85.5,334.00853 85.5,213.5 c 0,-126 0,-126 2.239308,-133.120036 C 91.868824,67.249881 102.20419,54.954508 114.20321,48.897422 126.58846,42.645363 115.52632,43 298.16088,43 c 117.8673,0 168.29393,0.323911 172.0399,1.105084 13.90612,2.89994 28.42885,13.952534 35.15715,26.756511 6.92876,13.18546 6.6109,6.388985 6.62729,141.704745 0.01,82.82308 -0.33105,123.97396 -1.06092,128 -3.71761,20.50659 -21.85137,38.64035 -42.35796,42.35796 -4.08627,0.74079 -57.32544,1.05856 -171,1.02064 -159.53423,-0.0532 -165.31229,-0.11949 -172.40504,-1.97736 z M 197.5,231.30044 c 5.31464,-2.48056 7.14226,-2.80044 16,-2.80044 14.62658,0 17.95382,1.85765 37.12295,20.72632 15.12295,14.88591 15.12295,14.88591 56.22198,-34.42021 42.66383,-51.18337 45.27607,-53.87992 55.44002,-57.2293 10.50227,-3.46087 25.22024,-0.78484 33.91382,6.16623 2.58432,2.06633 20.02182,21.67937 38.75,43.58453 L 469,247.15514 469,169.59335 C 469,92.031553 469,92.031553 466.0821,88.765777 463.1642,85.5 463.1642,85.5 301.3321,85.205393 c -115.45316,-0.210177 -162.92051,0.02037 -165.62992,0.80447 -2.52016,0.729324 -4.45332,2.174121 -5.74627,4.294607 -1.89755,3.112082 -1.94853,5.858602 -1.95217,105.17461 L 128,297.45815 159.75,265.77951 c 27.21986,-27.15868 32.60609,-32.07821 37.75,-34.47907 z M 181,190.39685 C 165.03568,186.12559 152.71893,172.40241 150.06627,155.93084 145.97066,130.49945 166.00738,107 191.78695,107 c 12.62441,0 22.34981,4.22195 31.14335,13.51982 15.74596,16.64903 15.33763,42.21336 -0.93608,58.60537 -11.10611,11.18684 -26.0025,15.2827 -40.99422,11.27166 z"
        />
    </g>
</svg>
