<?xml version="1.0" encoding="UTF-8" standalone="no"?>
<svg
    viewBox="0 0 327.5737 327.41095"
    xmlns="http://www.w3.org/2000/svg">
    <g
        transform="translate(-36.092981,-35.666667)">
        <path
            fill="currentColor"
            d="M 119.88354,362.64814 C 95.37059,360.40232 75.962085,352.10615 61.657968,337.75961 46.552382,322.60921 38.799815,303.97189 36.622583,277.57406 c -0.463217,-5.61626 -0.62676,-34.67681 -0.474078,-84.24073 0.232143,-75.35905 0.239264,-75.70054 1.751596,-84 C 40.582813,94.611004 45.553169,81.900964 52.890637,71 56.35305,65.85604 66.522707,55.686383 71.666667,52.22397 82.696426,44.79981 95.414029,39.860958 110.33333,37.207859 L 119,35.666667 h 81 81 l 8.66667,1.541192 c 20.85185,3.708084 36.10243,11.144293 48.70847,23.750332 12.60604,12.606038 20.04225,27.856621 23.75033,48.708479 l 1.5412,8.66666 v 81 81 L 362.12547,289 c -2.65309,14.9193 -7.59195,27.63691 -15.01611,38.66667 -3.46241,5.14396 -13.63207,15.31361 -18.77603,18.77603 -10.89962,7.33656 -23.60719,12.30631 -38.33333,14.9916 l -8.33333,1.51957 -78,0.11206 c -42.9,0.0616 -80.60241,-0.12637 -83.78313,-0.41779 z M 98.120048,279.12673 c 16.617302,-11.15632 31.783242,-21.07629 33.702082,-22.04437 4.95958,-2.50216 10.34007,-3.74903 16.17787,-3.74903 9.57668,0 16.76631,2.92614 25.8818,10.53372 9.1748,7.65709 15.44453,10.11712 25.78487,10.11712 6.61297,0 11.36775,-1.02912 16.61422,-3.59598 2.19542,-1.07412 16.91364,-13.22652 40.3615,-33.32531 20.29829,-17.39907 38.33525,-32.41258 40.08212,-33.36335 4.14109,-2.25386 12.49884,-4.3662 17.27549,-4.3662 4.37238,0 12.70453,1.97867 16.51227,3.92124 1.44109,0.73519 4.01537,2.40169 5.72062,3.70333 l 3.10044,2.36663 v -42.35521 c 0,-25.01201 -0.28649,-45.006 -0.69967,-48.82893 C 337.61928,108.7548 335.12276,99.979212 331.1971,92 328.12376,85.753201 327.03121,84.282666 321.04326,78.333333 313.48429,70.823101 307.97347,67.477036 297.55761,64.07329 285.96123,60.283768 287.25414,60.333333 200,60.333333 c -87.25414,0 -85.96123,-0.04957 -97.55761,3.739957 C 92.073111,67.461813 86.542473,70.820809 78.963016,78.333333 72.944169,84.29903 71.87536,85.736019 68.797978,92 c -3.922324,7.98385 -6.418111,16.76265 -7.431642,26.14039 -1.113485,10.30257 -0.916648,154.33335 0.222693,162.95031 1.096869,8.29574 4.273041,19.10488 5.477943,18.64252 0.461885,-0.17725 14.435769,-9.45016 31.053076,-20.60649 z M 142,171.66182 c -20.65725,-5.03529 -33.58883,-25.46562 -29.04529,-45.888 3.22903,-14.51386 13.94767,-25.77125 28.37862,-29.805024 4.4745,-1.250722 14.90682,-1.085998 19.66667,0.310533 14.82523,4.349701 25.41609,16.076321 28.04633,31.054001 2.97564,16.9446 -5.70174,33.84809 -21.16616,41.23155 -3.05076,1.45658 -7.1366,2.97536 -9.07965,3.37506 -4.6604,0.95868 -12.24141,0.83318 -16.80052,-0.27812 z"
        />
    </g>
</svg>
