<?xml version="1.0" encoding="UTF-8" standalone="no"?>

<svg
    version="1.1"
    viewBox="0 0 383.30399 383.4726"
    xmlns="http://www.w3.org/2000/svg">
    <g
        transform="translate(-64.182888,-64.20924)">
        <path
            fill="currentColor"
            d="m 407.5,446.66163 c -2.2,-0.72902 -5.575,-2.1275 -7.5,-3.10774 -1.925,-0.98023 -22.51733,-20.73609 -45.76074,-43.90191 -40.81013,-40.67389 -42.33761,-42.07079 -44.5,-40.69595 C 268.52396,385.16052 216.2233,390.96621 170,374.46794 127.53564,359.31132 92.132085,325.08633 75.512779,283.12612 39.88724,193.17923 91.48334,92.616027 185.37388,69.00172 262.66702,49.561806 343.14782,90.798136 372.48722,164.87388 389.363,207.48162 387.3292,254.90688 366.90686,295 c -2.66147,5.225 -5.8471,11.19511 -7.07918,13.26692 l -2.24013,3.76692 42.15056,42.23308 c 47.92313,48.01694 47.74877,47.79152 47.74877,61.73308 0,12.9061 -6.7048,23.46353 -18.26123,28.75423 -6.50906,2.97995 -15.97974,3.81142 -21.72565,1.9074 z M 241.52265,334.52853 c 61.16348,-9.92043 102.82633,-67.498 92.94218,-128.44501 -9.09618,-56.08827 -58.5393,-96.23106 -115.46483,-93.7457 -16.75632,0.73157 -28.93472,3.90232 -44.5,11.58592 -37.28454,18.40503 -60.25339,53.54811 -62.14005,95.07626 -3.21066,70.67171 59.56127,126.81755 129.1627,115.52853 z"
        />
    </g>
</svg>
