<svg
    version="1.1"
    viewBox="0 0 1234.3408 1234.1947"
    stroke="currentColor"
    fill="currentColor"
    stroke-width="25"
    xmlns="http://www.w3.org/2000/svg">
    <g
        transform="translate(-406.87451,-441.40253)">
        <path
            d="m 985,1674.9644 c -55.77524,-3.9373 -121.223,-16.9838 -145.88272,-29.0807 -14.8258,-7.2728 -25.82871,-21.114 -29.17024,-36.6951 -1.41754,-6.6097 -0.78202,-22.2318 1.51284,-37.1886 6.83774,-44.5649 -14.73513,-84.09 -55.11281,-100.9761 -9.60335,-4.0161 -20.51558,-6.0239 -32.73954,-6.0239 -23.33465,0 -37.14047,5.5899 -67.10753,27.1713 -7.7,5.5454 -17.16941,11.571 -21.04314,13.3903 -17.3679,8.1569 -38.77531,6.6783 -54.60679,-3.7716 -8.48303,-5.5995 -40.46749,-37.7504 -55.50105,-55.79 -47.99415,-57.5908 -82.94168,-120.0574 -105.17844,-188 -10.00524,-30.5702 -12.25903,-39.4279 -12.84936,-50.5 -0.91212,-17.1077 3.27688,-29.4068 14.0024,-41.1119 6.43233,-7.0197 14.83079,-12.394 36.6499,-23.4527 32.80476,-16.6267 48.64086,-32.6832 57.1402,-57.9354 2.79774,-8.3123 3.25566,-11.1902 3.66272,-23.0195 0.70606,-20.5183 -3.18486,-35.4866 -13.28179,-51.0948 C 495.28609,995.10484 481.59393,984.65384 450,968.52753 c -17.97095,-9.17281 -20.09005,-10.54428 -27.02498,-17.4904 -15.72224,-15.74763 -19.70426,-34.43853 -12.9324,-60.70243 11.04943,-42.85395 32.30178,-94.06131 56.2463,-135.52498 14.04995,-24.32969 34.75135,-54.5973 51.23006,-74.9037 19.33901,-23.8311 53.75466,-58.87727 64.90889,-66.09807 15.06099,-9.74988 34.2508,-11.20928 51.60828,-3.92485 3.59488,1.50867 14.8524,8.57239 25.01671,15.69716 31.11428,21.80986 40.62922,25.64034 63.94714,25.74358 10.73173,0.0475 15.34551,-0.39593 22.5,-2.1625 30.64951,-7.56795 56.03019,-32.8539 64.17704,-63.93751 3.13282,-11.95301 3.43855,-28.90488 0.82465,-45.72383 -3.75396,-24.15449 -1.03611,-38.46812 10.21441,-53.79438 3.90763,-5.32327 11.44603,-11.72736 17.34999,-14.73934 9.0946,-4.63972 42.73383,-13.22103 76.08109,-19.40816 58.17081,-10.7928 118.19892,-13.00533 177.19802,-6.53122 35.3373,3.87763 84.756,13.96364 109.4897,22.34606 19.1919,6.50424 31.8602,20.14991 36.763,39.59908 2.1252,8.4305 2.1492,18.73696 0.078,33.32918 -4.2736,30.10207 -0.4955,51.22302 12.7137,71.07528 9.9621,14.97214 21.5982,25.05153 37.2905,32.30185 26.5823,12.28177 57.598,10.46108 81.8349,-4.80388 4.6852,-2.95086 15.2834,-10.15897 23.5516,-16.01801 16.3973,-11.61955 21.5045,-14.2333 32.3012,-16.53078 13.3807,-2.84738 29.1314,0.25206 40.8673,8.04196 11.037,7.32593 46.3655,43.36784 65.5231,66.8462 20.6621,25.3222 45.7737,63.91258 63.3001,97.2769 16.5862,31.57428 35.8247,81.96596 43.5096,113.96507 2.2708,9.45556 2.573,12.53664 2.2066,22.5 -0.4906,13.34364 -2.3975,19.43769 -9.1944,29.38436 -6.1117,8.94377 -13.0499,13.94797 -34.7477,25.06185 -23.619,12.09795 -31.0382,16.88399 -41.2104,26.58469 -8.911,8.49789 -14.373,16.02349 -19.1546,26.39139 -4.8979,10.6203 -6.5094,17.7763 -7.1211,31.6219 -0.4488,10.159 -0.1806,14.29 1.4319,22.0578 3.4261,16.5041 11.0403,30.4909 23.052,42.3451 9.0019,8.8838 17.7889,14.6633 39.1703,25.7637 9.625,4.9969 20.5248,11.0797 24.2218,13.5174 15.9176,10.4955 24.1495,26.7311 23.9908,47.316 -0.088,11.3532 -3.7996,25.7562 -15.6137,60.5832 -27.5244,81.1396 -74.5921,156.0888 -135.4424,215.6747 -18.2206,17.8421 -25.4699,23.3035 -35.4337,26.695 -18.9483,6.4497 -38.2497,2.5348 -57.2228,-11.6066 -20.6188,-15.368 -35.7107,-24.1012 -49,-28.3546 -9.4342,-3.0196 -31.6403,-3.8899 -42.1781,-1.653 -31.0459,6.5902 -56.9085,30.3388 -66.6056,61.1613 -5.291,16.8174 -5.511,27.1691 -1.2425,58.4512 2.3055,16.8958 -0.1592,29.1609 -8.3786,41.6946 -10.1664,15.5028 -21.1482,21.1676 -59.5952,30.7412 -30.3448,7.5561 -55.8269,11.9747 -87.5,15.1724 -18.3164,1.8492 -79.3181,2.7238 -98,1.405 z m 78.5,-101.0195 c 15.0913,-1.301 34.8198,-4.2669 53.406,-8.029 7.9233,-1.6037 14.5608,-2.9159 14.75,-2.9159 0.1892,0 0.344,-3.9403 0.344,-8.7561 0,-13.112 2.6432,-33.1768 6.1533,-46.7097 14.0642,-54.2246 48.5985,-97.5066 98.8467,-123.8852 19.1873,-10.0727 37.7268,-16.0124 60,-19.223 17.4387,-2.5136 50.1326,-1.5545 66.6124,1.9543 19.9489,4.2473 40.9212,12.7176 59.3876,23.9852 l 7.5,4.5763 6.926,-7.2209 c 23.0605,-24.0426 49.6831,-62.969 67.9286,-99.3222 10.8681,-21.654 24.7457,-55.2106 24.5949,-59.4712 -0.028,-0.7851 -5.4685,-4.8025 -12.0905,-8.9275 -20.37,-12.6891 -34.0682,-24.3305 -47.6557,-40.5 -21.4424,-25.517 -35.8577,-56.1223 -41.6843,-88.5 -2.5425,-14.1284 -3.1084,-42.6259 -1.1424,-57.5296 5.3278,-40.38842 22.8355,-76.8154 51.1091,-106.33898 11.7796,-12.30032 31.5218,-27.3956 47.2643,-36.1392 2.6499,-1.47176 4.25,-3.06653 4.25,-4.2357 0,-2.71645 -10.07,-27.75959 -18.3989,-45.75652 -18.9435,-40.93264 -46.1021,-81.77825 -76.7253,-115.39246 l -4.4572,-4.89246 -9.4593,5.70844 c -29.9033,18.04581 -61.2514,26.76764 -96.4593,26.83741 -50.2325,0.0995 -96.4252,-18.45289 -133.0049,-53.4189 -28.0939,-26.85446 -47.9178,-62.12991 -55.3421,-98.47792 -2.6132,-12.79342 -4.4246,-31.00554 -3.9939,-40.15379 0.2717,-5.76869 0.036,-7.33422 -1.1591,-7.70715 -8.4321,-2.63081 -44.6152,-8.57908 -65,-10.6856 -16.2121,-1.67532 -64.7752,-1.6762 -81,-0.001 -21.6733,2.23714 -64.24384,9.24544 -67.87704,11.17446 -1.0514,0.55823 -1.33782,3.18794 -1.2112,11.12028 0.74747,46.82569 -20.82036,97.44914 -56.34491,132.25129 -37.53252,36.76929 -84.17757,55.89068 -136.56685,55.98337 -34.67243,0.0614 -65.30945,-8.6435 -96.63888,-27.45785 C 621.88474,723.19945 617.99788,721 617.72365,721 c -0.86612,0 -17.2968,19.10506 -24.9405,29 -22.79441,29.50787 -36.81601,51.88686 -52.31713,83.5 -8.4779,17.28993 -18.90145,42.11406 -21.88949,52.13078 -0.54891,1.84009 0.63029,2.91099 8.64392,7.85001 53.00092,32.66587 85.0748,79.99793 93.26713,137.63621 1.93948,13.6454 1.93023,40.8187 -0.0186,54.7915 -5.44206,39.0179 -23.50455,75.0644 -51.95449,103.6832 -13.95614,14.039 -23.30217,21.4079 -39.98289,31.5245 -5.78922,3.5111 -10.52714,6.8853 -10.52871,7.4982 -0.004,1.5842 6.97706,19.9372 12.46455,32.7689 5.85774,13.6973 18.59383,39.1798 26.0779,52.1769 13.32984,23.149 37.31893,55.9674 54.65576,74.7721 l 6.29894,6.8322 9.5,-5.7562 c 18.04208,-10.9319 37.47805,-18.5886 58.4305,-23.0183 16.56297,-3.5016 48.40502,-4.4547 65.5695,-1.9625 28.31615,4.1114 54.04464,13.7837 78,29.3231 25.34929,16.4436 49.354,42.723 64.27435,70.3649 13.8583,25.6744 22.72565,60.2334 22.72565,88.5695 0,7.783 0.27668,9.3918 1.75,10.1757 4.06918,2.165 48.22583,9.4208 67.25,11.0505 14.04392,1.203 64.68336,1.2248 78.49996,0.034 z m -58.3545,-275.0739 c -34.88243,-2.8658 -67.99272,-12.7079 -97.21269,-28.8967 -20.99296,-11.6307 -34.45437,-21.6584 -52.30656,-38.964 -21.30597,-20.6538 -36.00931,-40.9319 -49.67567,-68.5103 -23.55819,-47.5399 -30.51517,-100.7428 -20.00678,-153 15.53751,-77.26657 67.24896,-142.14531 139.15564,-174.58884 36.27526,-16.36702 82.87676,-23.89436 123.04456,-19.87487 45.577,4.56078 88.6322,21.73536 124.856,49.80471 10.5821,8.19992 32.5954,30.0215 41.0163,40.659 15.2186,19.2247 29.523,44.37686 37.5351,66 4.63,12.49575 10.6997,36.3886 13.0828,51.5 2.7606,17.5055 2.5237,53.0169 -0.4704,70.5 -9.4567,55.2206 -31.749,98.3579 -70.5287,136.4787 -41.6387,40.9312 -92.1202,63.9723 -151.1351,68.982 -13.6085,1.1552 -22.4606,1.134 -37.3545,-0.09 z m 41.4735,-103.3962 c 20.4788,-3.517 36.3498,-9.7185 53.3084,-20.8299 27.8936,-18.2761 47.0509,-43.2408 57.5535,-75.0006 4.6195,-13.9694 6.5191,-26.4087 6.5191,-42.6895 0,-38.6943 -13.8895,-72.05192 -41.4257,-99.48951 -34.2256,-34.10317 -80.4098,-47.70586 -128.37789,-37.81132 -16.06057,3.31287 -33.39887,10.79461 -49.19641,21.229 -11.15734,7.3695 -29.03472,25.18536 -36.24175,36.11703 -18.11393,27.4753 -25.60108,53.5048 -24.44953,85 0.81349,22.2492 4.96828,38.6061 14.80559,58.2877 8.83686,17.68 27.08509,38.8746 43.62987,50.6743 16.6288,11.8596 38.35374,21.0593 57.75582,24.4574 10.9897,1.9247 35.0657,1.9537 46.119,0.055 z"
        />
    </g>
</svg>
